<?xml version="1.0" encoding="UTF-8" standalone="no"?>
<svg
   xmlns:dc="http://purl.org/dc/elements/1.1/"
   xmlns:cc="http://creativecommons.org/ns#"
   xmlns:rdf="http://www.w3.org/1999/02/22-rdf-syntax-ns#"
   xmlns:svg="http://www.w3.org/2000/svg"
   xmlns="http://www.w3.org/2000/svg"
   xmlns:sodipodi="http://sodipodi.sourceforge.net/DTD/sodipodi-0.dtd"
   xmlns:inkscape="http://www.inkscape.org/namespaces/inkscape"
   width="135.99869mm"
   height="85.877602mm"
   viewBox="0 0 135.99869 85.877602"
   version="1.1"
   id="svg8"
   inkscape:version="1.0.2-2 (e86c870879, 2021-01-15)"
   sodipodi:docname="InterpolateXsi.svg">
  <defs
     id="defs2">
    <rect
       x="-1.0690781"
       y="4.2763124"
       width="228.78271"
       height="141.65285"
       id="rect1200" />
  </defs>
  <sodipodi:namedview
     id="base"
     pagecolor="#ffffff"
     bordercolor="#666666"
     borderopacity="1.0"
     inkscape:pageopacity="0.0"
     inkscape:pageshadow="2"
     inkscape:zoom="1.4"
     inkscape:cx="242.75863"
     inkscape:cy="118.20185"
     inkscape:document-units="mm"
     inkscape:current-layer="layer1"
     inkscape:document-rotation="0"
     showgrid="false"
     showguides="false"
     fit-margin-top="0"
     fit-margin-left="0"
     fit-margin-right="0"
     fit-margin-bottom="0"
     inkscape:window-width="1920"
     inkscape:window-height="1017"
     inkscape:window-x="1912"
     inkscape:window-y="-8"
     inkscape:window-maximized="1" />
  <metadata
     id="metadata5">
    <rdf:RDF>
      <cc:Work
         rdf:about="">
        <dc:format>image/svg+xml</dc:format>
        <dc:type
           rdf:resource="http://purl.org/dc/dcmitype/StillImage" />
        <dc:title></dc:title>
      </cc:Work>
    </rdf:RDF>
  </metadata>
  <g
     inkscape:label="Ebene 1"
     inkscape:groupmode="layer"
     id="layer1"
     transform="translate(-29.029851,-23.145816)">
    <path
       d="M 30.158742,23.534075 150.70802,62.641963 164.61735,108.20069 101.92379,94.291177 30.158742,92.678453 V 23.534075"
       style="fill:#dcdcdc;fill-opacity:1;fill-rule:evenodd;stroke:none;stroke-width:0.0352778"
       id="path845" />
    <path
       d="M 30.158742,23.534075 150.70802,62.641963 164.61735,108.20069 101.92379,94.291177 30.158742,92.678453 Z"
       style="fill:none;stroke:#000000;stroke-width:0.564444;stroke-linecap:butt;stroke-linejoin:miter;stroke-miterlimit:10;stroke-dasharray:none;stroke-opacity:1"
       id="path847" />
    <path
       d="M 102.12558,94.089564 90.634904,43.289631"
       style="fill:none;stroke:#000000;stroke-width:0.564444;stroke-linecap:butt;stroke-linejoin:miter;stroke-miterlimit:10;stroke-dasharray:none;stroke-opacity:1"
       id="path849" />
    <path
       d="m 73.500133,37.846623 8.264879,55.839751"
       style="fill:none;stroke:#0005ff;stroke-width:0.282222;stroke-linecap:butt;stroke-linejoin:miter;stroke-miterlimit:10;stroke-dasharray:1.12889, 1.12889;stroke-dashoffset:0;stroke-opacity:1"
       id="path851" />
    <path
       d="M 30.158742,47.522965 154.13491,74.13243"
       style="fill:#aad400;fill-opacity:1;fill-rule:evenodd;stroke:none;stroke-width:0.0352778"
       id="path891" />
    <path
       d="M 30.158742,47.522965 154.13491,74.13243"
       style="fill:none;stroke:#008012;stroke-width:0.282222;stroke-linecap:butt;stroke-linejoin:miter;stroke-miterlimit:10;stroke-dasharray:1.12889, 1.12889;stroke-dashoffset:0;stroke-opacity:1"
       id="path893" />
    <path
       d="m 34.905819,64.939958 h 0.556725 v -4.114836 h -0.556725 z"
       style="fill:#b10000;fill-opacity:1;fill-rule:nonzero;stroke:none;stroke-width:0.0352778"
       id="path927" />
    <path
       d="m 39.114352,63.076938 v 1.86302 h -0.507118 v -1.846439 c 0,-0.2921 -0.05708,-0.510822 -0.170886,-0.655814 -0.113982,-0.145345 -0.284833,-0.218017 -0.512621,-0.218017 -0.273826,0 -0.489762,0.08749 -0.6477,0.262114 -0.158045,0.174272 -0.237032,0.412397 -0.237032,0.71367 v 1.744486 h -0.509869 v -3.086806 h 0.509869 v 0.479778 c 0.121285,-0.185561 0.263631,-0.324556 0.427214,-0.416278 0.165347,-0.09208 0.35553,-0.137936 0.570513,-0.137936 0.354541,0 0.622864,0.110419 0.804756,0.330906 0.181893,0.218369 0.272874,0.540808 0.272874,0.967316"
       style="fill:#b10000;fill-opacity:1;fill-rule:nonzero;stroke:none;stroke-width:0.0352778"
       id="path929" />
    <path
       d="m 40.632919,60.976852 v 0.8763 h 1.044575 v 0.394406 h -1.044575 v 1.675694 c 0,0.251531 0.0339,0.413103 0.101988,0.48507 0.06974,0.07161 0.210291,0.107244 0.421676,0.107244 h 0.520911 v 0.424392 h -0.520911 c -0.391372,0 -0.661459,-0.07267 -0.810296,-0.217664 -0.148801,-0.147108 -0.223238,-0.413456 -0.223238,-0.799042 v -1.675694 h -0.372074 v -0.394406 h 0.372074 v -0.8763 h 0.50987"
       style="fill:#b10000;fill-opacity:1;fill-rule:nonzero;stroke:none;stroke-width:0.0352778"
       id="path931" />
    <path
       d="m 44.987538,63.269908 v 0.248002 h -2.33165 c 0.02205,0.349251 0.126789,0.615598 0.314184,0.799395 0.18923,0.181681 0.452014,0.272697 0.788247,0.272697 0.194733,0 0.383117,-0.02399 0.565009,-0.07161 0.183691,-0.04798 0.365583,-0.119591 0.545712,-0.214841 v 0.479425 c -0.181928,0.07726 -0.368512,0.135819 -0.559506,0.176389 -0.191135,0.04022 -0.385022,0.06068 -0.581519,0.06068 -0.492513,0 -0.882932,-0.143227 -1.171328,-0.430036 -0.286632,-0.286455 -0.429965,-0.674511 -0.429965,-1.163108 0,-0.505178 0.13589,-0.905934 0.407917,-1.201561 0.273649,-0.297745 0.642161,-0.446617 1.105182,-0.446617 0.415184,0 0.743162,0.134056 0.983897,0.402519 0.242535,0.266348 0.36382,0.629356 0.36382,1.088673 m -0.507118,-0.14888 c -0.0037,-0.277636 -0.08185,-0.498827 -0.23428,-0.66428 -0.150742,-0.1651 -0.350979,-0.248003 -0.600816,-0.248003 -0.283033,0 -0.50987,0.08008 -0.680755,0.239889 -0.169087,0.159808 -0.266524,0.384881 -0.292135,0.675217 l 1.807986,-0.0028"
       style="fill:#b10000;fill-opacity:1;fill-rule:nonzero;stroke:none;stroke-width:0.0352778"
       id="path933" />
    <path
       d="m 47.608571,62.327285 c -0.05704,-0.03316 -0.119486,-0.05715 -0.187431,-0.07161 -0.06615,-0.01658 -0.139735,-0.02469 -0.220486,-0.02469 -0.286632,0 -0.507118,0.09349 -0.661458,0.281164 -0.152541,0.185208 -0.228741,0.452614 -0.228741,0.801864 v 1.625953 h -0.50987 V 61.85316 h 0.50987 v 0.479778 c 0.106503,-0.187678 0.245286,-0.32632 0.416172,-0.416278 0.170885,-0.09208 0.378389,-0.137936 0.622864,-0.137936 0.03485,0 0.07345,0.0028 0.115746,0.0085 0.04219,0.0035 0.08904,0.0099 0.140582,0.0194 l 0.0028,0.5207"
       style="fill:#b10000;fill-opacity:1;fill-rule:nonzero;stroke:none;stroke-width:0.0352778"
       id="path935" />
    <path
       d="m 50.113823,61.944169 v 0.479778 c -0.143299,-0.07373 -0.292136,-0.128764 -0.446476,-0.165453 -0.15434,-0.03704 -0.314184,-0.05503 -0.479566,-0.05503 -0.251742,0 -0.440972,0.03845 -0.567725,0.115712 -0.12499,0.0769 -0.187431,0.192969 -0.187431,0.347133 0,0.117475 0.04494,0.210255 0.135043,0.278342 0.08999,0.06632 0.270933,0.129469 0.54296,0.190147 l 0.173638,0.03881 c 0.36008,0.07691 0.61542,0.186267 0.766198,0.327731 0.1524,0.1397 0.228741,0.335492 0.228741,0.587022 0,0.286809 -0.113983,0.513645 -0.341771,0.680861 -0.22599,0.167217 -0.537422,0.250825 -0.934297,0.250825 -0.165347,0 -0.338173,-0.01658 -0.518125,-0.04974 -0.178329,-0.03105 -0.366571,-0.07902 -0.565009,-0.143228 v -0.523522 c 0.187396,0.09701 0.372075,0.170744 0.553967,0.220486 0.181893,0.04762 0.36188,0.07161 0.540209,0.07161 0.238795,0 0.422487,-0.04057 0.551215,-0.121356 0.128552,-0.08255 0.192899,-0.198261 0.192899,-0.347133 0,-0.137936 -0.04685,-0.24377 -0.140547,-0.317147 -0.09193,-0.07338 -0.294886,-0.144287 -0.609106,-0.21202 l -0.176389,-0.04163 c -0.314183,-0.06597 -0.541161,-0.167216 -0.680755,-0.303036 -0.139735,-0.137936 -0.209444,-0.326319 -0.209444,-0.564797 0,-0.290689 0.102799,-0.514703 0.30868,-0.672747 0.205741,-0.158045 0.497876,-0.237067 0.876442,-0.237067 0.187395,0 0.363784,0.01376 0.529166,0.04163 0.165347,0.02752 0.317747,0.06879 0.457483,0.123825"
       style="fill:#b10000;fill-opacity:1;fill-rule:nonzero;stroke:none;stroke-width:0.0352778"
       id="path937" />
    <path
       d="m 53.729795,63.269908 v 0.248002 h -2.331614 c 0.02205,0.349251 0.126753,0.615598 0.314184,0.799395 0.189194,0.181681 0.451979,0.272697 0.788246,0.272697 0.194698,0 0.383082,-0.02399 0.564974,-0.07161 0.183691,-0.04798 0.365619,-0.119591 0.545712,-0.214841 v 0.479425 c -0.181892,0.07726 -0.368476,0.135819 -0.55947,0.176389 -0.191135,0.04022 -0.385022,0.06068 -0.581555,0.06068 -0.492513,0 -0.882897,-0.143227 -1.171328,-0.430036 -0.286632,-0.286455 -0.42993,-0.674511 -0.42993,-1.163108 0,-0.505178 0.135855,-0.905934 0.407882,-1.201561 0.273685,-0.297745 0.642161,-0.446617 1.105182,-0.446617 0.41522,0 0.743197,0.134056 0.983933,0.402519 0.242534,0.266348 0.363784,0.629356 0.363784,1.088673 m -0.507118,-0.148873 c -0.0037,-0.277636 -0.08184,-0.498827 -0.234244,-0.66428 -0.150778,-0.1651 -0.350979,-0.248003 -0.600816,-0.248003 -0.283069,0 -0.509905,0.08008 -0.680756,0.239889 -0.169086,0.159808 -0.266523,0.384881 -0.29217,0.675217 l 1.807986,-0.0028"
       style="fill:#b10000;fill-opacity:1;fill-rule:nonzero;stroke:none;stroke-width:0.0352778"
       id="path939" />
    <path
       d="m 56.783546,61.971685 v 0.474134 c -0.143334,-0.07902 -0.287585,-0.137936 -0.432718,-0.176389 -0.143298,-0.04057 -0.288537,-0.06068 -0.435433,-0.06068 -0.328966,0 -0.584306,0.104775 -0.766198,0.314325 -0.181893,0.207433 -0.272874,0.499533 -0.272874,0.8763 0,0.376767 0.09098,0.669925 0.272874,0.879122 0.181892,0.207787 0.437232,0.311503 0.766198,0.311503 0.146896,0 0.292135,-0.0194 0.435433,-0.05786 0.145133,-0.04057 0.289384,-0.100189 0.432718,-0.179211 v 0.468488 c -0.141535,0.06632 -0.288573,0.116064 -0.440973,0.148873 -0.150777,0.03316 -0.311432,0.04974 -0.482318,0.04974 -0.464961,0 -0.834248,-0.14605 -1.107933,-0.43815 -0.273827,-0.2921 -0.410669,-0.686505 -0.410669,-1.182511 0,-0.503414 0.137795,-0.89923 0.41342,-1.187803 0.277389,-0.288572 0.656767,-0.432858 1.138273,-0.432858 0.156104,0 0.308681,0.01658 0.457482,0.04974 0.148837,0.03104 0.292982,0.07902 0.432718,0.143227"
       style="fill:#b10000;fill-opacity:1;fill-rule:nonzero;stroke:none;stroke-width:0.0352778"
       id="path941" />
    <path
       d="m 58.172608,60.976852 v 0.8763 h 1.04454 v 0.394406 h -1.04454 v 1.675694 c 0,0.251531 0.0339,0.413103 0.101988,0.48507 0.06971,0.07161 0.210256,0.107244 0.421675,0.107244 h 0.520877 v 0.424392 h -0.520877 c -0.391371,0 -0.661458,-0.07267 -0.810295,-0.217664 -0.148837,-0.147108 -0.223238,-0.413456 -0.223238,-0.799042 v -1.675694 h -0.372074 v -0.394406 h 0.372074 v -0.8763 h 0.50987"
       style="fill:#b10000;fill-opacity:1;fill-rule:nonzero;stroke:none;stroke-width:0.0352778"
       id="path943" />
    <path
       d="m 59.886897,61.853152 h 0.507118 v 3.086806 h -0.507118 v -3.086806 m 0,-1.201561 h 0.507118 v 0.642055 h -0.507118 v -0.642055"
       style="fill:#b10000;fill-opacity:1;fill-rule:nonzero;stroke:none;stroke-width:0.0352778"
       id="path945" />
    <path
       d="m 62.648476,62.208752 c -0.272027,0 -0.487009,0.106539 -0.644913,0.319617 -0.158079,0.211314 -0.237031,0.50165 -0.237031,0.871008 0,0.369359 0.078,0.6604 0.23428,0.873831 0.157903,0.211314 0.373838,0.316794 0.647664,0.316794 0.270087,0 0.484117,-0.106539 0.642162,-0.319616 0.157939,-0.213078 0.237031,-0.503414 0.237031,-0.871009 0,-0.36583 -0.07909,-0.655108 -0.237031,-0.868186 -0.158045,-0.214842 -0.372075,-0.322439 -0.642162,-0.322439 m 0,-0.430036 c 0.440973,0 0.787259,0.143581 1.039037,0.430036 0.251636,0.286808 0.377578,0.683683 0.377578,1.190625 0,0.505178 -0.125942,0.902053 -0.377578,1.190625 -0.251778,0.286809 -0.598064,0.430036 -1.039037,0.430036 -0.442912,0 -0.790187,-0.143227 -1.041788,-0.430036 -0.249978,-0.288572 -0.374826,-0.685447 -0.374826,-1.190625 0,-0.506942 0.124848,-0.903817 0.374826,-1.190625 0.251601,-0.286455 0.598876,-0.430036 1.041788,-0.430036"
       style="fill:#b10000;fill-opacity:1;fill-rule:nonzero;stroke:none;stroke-width:0.0352778"
       id="path947" />
    <path
       d="m 67.468691,63.076938 v 1.86302 H 66.96175 v -1.846439 c 0,-0.2921 -0.05715,-0.510822 -0.170745,-0.655814 -0.113947,-0.145345 -0.285044,-0.218017 -0.512939,-0.218017 -0.273755,0 -0.489655,0.08749 -0.647347,0.262114 -0.158397,0.174272 -0.237067,0.412397 -0.237067,0.71367 v 1.744486 h -0.510117 v -3.086806 h 0.510117 v 0.479778 c 0.121003,-0.185561 0.263525,-0.324556 0.427214,-0.416278 0.1651,-0.09208 0.355247,-0.137936 0.570442,-0.137936 0.354541,0 0.622653,0.110419 0.804686,0.330906 0.182033,0.218369 0.272697,0.540808 0.272697,0.967316"
       style="fill:#b10000;fill-opacity:1;fill-rule:nonzero;stroke:none;stroke-width:0.0352778"
       id="path949" />
    <path
       d="m 70.02633,63.619863 h 1.485526 V 63.167867 H 70.02633 Z"
       style="fill:#b10000;fill-opacity:1;fill-rule:nonzero;stroke:none;stroke-width:0.0352778"
       id="path951" />
    <path
       d="m 72.38853,62.161833 v -0.50165 l 3.53307,1.281641 v 0.457553 l -3.53307,1.281642 v -0.50165 l 2.838803,-1.00577 -2.838803,-1.011766"
       style="fill:#b10000;fill-opacity:1;fill-rule:nonzero;stroke:none;stroke-width:0.0352778"
       id="path953" />
    <path
       d="m 81.414703,61.853152 -1.116189,1.502128 1.174045,1.584678 h -0.598311 l -0.898173,-1.212497 -0.898525,1.212497 h -0.598311 l 1.199092,-1.615017 -1.097139,-1.471789 h 0.598311 l 0.818445,1.099961 0.818444,-1.099961 h 0.598311"
       style="fill:#b10000;fill-opacity:1;fill-rule:nonzero;stroke:none;stroke-width:0.0352778"
       id="path955" />
    <path
       d="m 84.156845,61.944169 v 0.479778 c -0.143228,-0.07373 -0.2921,-0.128764 -0.446264,-0.165453 -0.154517,-0.03704 -0.314325,-0.05503 -0.479778,-0.05503 -0.251883,0 -0.440972,0.03845 -0.567619,0.115712 -0.125236,0.0769 -0.187325,0.192969 -0.187325,0.347133 0,0.117475 0.0448,0.210255 0.134761,0.278342 0.08996,0.06632 0.270933,0.129469 0.542925,0.190147 l 0.173919,0.03881 c 0.359834,0.07691 0.615245,0.186267 0.765881,0.327731 0.1524,0.1397 0.228953,0.335492 0.228953,0.587022 0,0.286809 -0.113947,0.513645 -0.341842,0.680861 -0.225778,0.167217 -0.53728,0.250825 -0.934155,0.250825 -0.165453,0 -0.338314,-0.01658 -0.518231,-0.04974 -0.178506,-0.03105 -0.366536,-0.07902 -0.56515,-0.143228 v -0.523522 c 0.187678,0.09701 0.37218,0.170744 0.554214,0.220486 0.18168,0.04762 0.361597,0.07161 0.540103,0.07161 0.23883,0 0.422627,-0.04057 0.551039,-0.121356 0.128763,-0.08255 0.192969,-0.198261 0.192969,-0.347133 0,-0.137936 -0.04657,-0.24377 -0.140406,-0.317147 -0.09207,-0.07338 -0.294922,-0.144287 -0.609247,-0.21202 l -0.176389,-0.04163 c -0.313972,-0.06597 -0.541161,-0.167216 -0.680508,-0.303036 -0.1397,-0.137936 -0.20955,-0.326319 -0.20955,-0.564797 0,-0.290689 0.102658,-0.514703 0.30868,-0.672747 0.20567,-0.158045 0.49777,-0.237067 0.876301,-0.237067 0.187677,0 0.364066,0.01376 0.529166,0.04163 0.165453,0.02752 0.317853,0.06879 0.457553,0.123825"
       style="fill:#b10000;fill-opacity:1;fill-rule:nonzero;stroke:none;stroke-width:0.0352778"
       id="path957" />
    <path
       d="m 85.132628,61.853152 h 0.506942 v 3.086806 h -0.506942 v -3.086806 m 0,-1.201561 h 0.506942 v 0.642055 h -0.506942 v -0.642055"
       style="fill:#b10000;fill-opacity:1;fill-rule:nonzero;stroke:none;stroke-width:0.0352778"
       id="path959" />
    <path
       d="m 77.539792,57.481177 c 0,0.627591 -0.509411,1.137003 -1.137003,1.137003 -0.627592,0 -1.137003,-0.509412 -1.137003,-1.137003 0,-0.627592 0.509411,-1.13665 1.137003,-1.13665 0.627592,0 1.137003,0.509058 1.137003,1.13665"
       style="fill:#b10000;fill-opacity:1;fill-rule:nonzero;stroke:none;stroke-width:0.0352778"
       id="path961" />
    <path
       d="m 31.303615,47.522965 c 0,0.627592 -0.509323,1.13665 -1.136883,1.13665 -0.627556,0 -1.136881,-0.509058 -1.136881,-1.13665 0,-0.627592 0.509325,-1.137003 1.136881,-1.137003 0.62756,0 1.136883,0.509411 1.136883,1.137003"
       style="fill:#008012;fill-opacity:1;fill-rule:nonzero;stroke:none;stroke-width:0.0352778"
       id="path963" />
    <path
       d="m 155.11069,74.051785 c 0,0.627592 -0.50941,1.136897 -1.137,1.136897 -0.62759,0 -1.137,-0.509305 -1.137,-1.136897 0,-0.627556 0.50941,-1.136932 1.137,-1.136932 0.62759,0 1.137,0.509376 1.137,1.136932"
       style="fill:#008012;fill-opacity:1;fill-rule:nonzero;stroke:none;stroke-width:0.0352778"
       id="path965" />
    <text
       xml:space="preserve"
       style="font-size:4.9389px;line-height:1.25;font-family:sans-serif;letter-spacing:0px;word-spacing:0px;stroke-width:0.264583"
       x="37.150467"
       y="101.8297"
       id="text1154"><tspan
         sodipodi:role="line"
         x="37.150467"
         y="101.8297"
         style="fill:#0000ff;stroke-width:0.264583"
         id="tspan1160">Iso eta line of segment /</tspan><tspan
         sodipodi:role="line"
         x="37.150467"
         y="108.00332"
         style="fill:#0000ff;stroke-width:0.264583"
         id="tspan1164">component segment</tspan></text>
    <text
       xml:space="preserve"
       style="font-size:4.9389px;line-height:1.25;font-family:sans-serif;letter-spacing:0px;word-spacing:0px;fill:#008012;fill-opacity:1;stroke-width:0.264583"
       x="87.685921"
       y="37.960724"
       id="text1168"
       transform="rotate(11.654897)"><tspan
         sodipodi:role="line"
         id="tspan1166"
         x="87.685921"
         y="37.960724"
         style="fill:#008012;fill-opacity:1;stroke-width:0.264583">Straight line on chord surface</tspan></text>
    <text
       xml:space="preserve"
       style="font-size:4.9389px;line-height:1.25;font-family:sans-serif;letter-spacing:0px;word-spacing:0px;fill:#008012;fill-opacity:1;stroke-width:0.264583"
       x="32.127975"
       y="45.735119"
       id="text1172"><tspan
         sodipodi:role="line"
         id="tspan1170"
         x="32.127975"
         y="45.735119"
         style="fill:#008012;fill-opacity:1;stroke-width:0.264583">First point</tspan></text>
    <text
       xml:space="preserve"
       style="font-size:4.9389px;line-height:1.25;font-family:sans-serif;letter-spacing:0px;word-spacing:0px;fill:#008012;fill-opacity:1;stroke-width:0.264583"
       x="122.02868"
       y="79.929733"
       id="text1172-6"><tspan
         sodipodi:role="line"
         id="tspan1170-7"
         x="122.02868"
         y="79.929733"
         style="fill:#008012;fill-opacity:1;stroke-width:0.264583">Second point</tspan></text>
    <text
       xml:space="preserve"
       id="text1198"
       style="font-size:4.93889px;line-height:1.25;font-family:sans-serif;letter-spacing:0px;word-spacing:0px;white-space:pre;shape-inside:url(#rect1200);" />
  </g>
</svg>
